<svg width="54" height="61" viewBox="0 0 54 61" fill="none" xmlns="http://www.w3.org/2000/svg">
<ellipse cx="27" cy="30.1448" rx="27" ry="29.9421" fill="#0D0000"/>
<mask id="mask0_6_130" style="mask-type:luminance" maskUnits="userSpaceOnUse" x="4" y="8" width="46" height="45">
<path d="M50 8.12439H4V52.6528H50V8.12439Z" fill="white"/>
</mask>
<g mask="url(#mask0_6_130)">
<path d="M27 13.8495C21.919 13.8495 17.8 17.8367 17.8 22.7551V23.7357C16.8677 23.8871 16.1571 24.6721 16.1571 25.6177V27.8441C16.1571 28.8065 16.8931 29.6027 17.8501 29.7335C18.1897 32.8833 20.2253 35.5447 23.0571 36.8469V39.7714H22.4C15.8673 39.7714 10.5714 44.8978 10.5714 51.2215V52.6528H43.4286V51.2215C43.4286 44.8978 38.1327 39.7714 31.6 39.7714H30.9429V36.8469C33.7747 35.5447 35.8103 32.8833 36.1499 29.7335C37.1069 29.6027 37.8429 28.8065 37.8429 27.8441V25.6177C37.8429 24.6721 37.1323 23.8871 36.2 23.7357V22.7551C36.2 17.8367 32.081 13.8495 27 13.8495Z" fill="#AE5D29"/>
<path d="M23.0571 36.847V38.1192C24.2892 38.6853 25.6362 38.9781 27 38.9762C28.3638 38.9781 29.7108 38.6853 30.9429 38.1192V36.847C29.7108 37.4131 28.3638 37.7058 27 37.704C25.6362 37.7058 24.2892 37.4131 23.0571 36.847Z" fill="black" fill-opacity="0.1"/>
<path d="M27.0821 43.7472C30.1218 43.7472 32.5857 42.2163 32.5857 40.328C32.5857 40.1549 32.565 39.9825 32.5239 39.814C38.6249 40.2704 43.4286 45.2071 43.4286 51.2298V52.6528H10.5714V51.2298C10.5714 45.1522 15.463 40.1804 21.6431 39.8027C21.6003 39.9747 21.5786 40.1511 21.5786 40.328C21.5786 42.2163 24.0425 43.7472 27.0821 43.7472Z" fill="#B1E2FF"/>
<path fill-rule="evenodd" clip-rule="evenodd" d="M28.7961 48.4212C28.1255 48.6407 27.3915 48.9498 27.0046 49.5462C26.7012 50.014 26.6808 49.4738 26.2571 49.6405C25.8451 49.8025 25.9578 50.4711 25.8081 50.8016C25.6918 50.6122 25.6368 50.4014 25.4902 50.2284C25.6067 50.1562 25.7078 50.0632 25.7882 49.9542C25.8139 49.9034 25.001 50.0096 24.9543 50.0226C24.7225 50.0864 24.5042 50.1451 24.2827 50.2499C24.394 50.0938 24.5017 49.9353 24.6055 49.7745C24.6395 49.6664 24.7002 49.6661 24.7876 49.7736C24.9104 49.7793 24.9811 49.8304 25.1099 49.8017C25.5888 49.6958 25.7412 48.8121 25.151 48.8496C25.409 48.3952 25.6422 47.9279 25.8497 47.4498C25.9321 48.1322 26.8485 47.8972 27.1178 47.5333C27.4694 47.058 27.0186 46.1558 26.3813 46.2433C26.4766 46.0246 26.5735 45.804 26.6522 45.5789C26.8316 45.8349 27.1452 45.9589 27.3977 46.1286C27.6593 46.3044 27.8902 46.5194 28.0817 46.7657C28.4736 47.265 28.7048 47.88 29.1027 48.3644C28.9983 48.3697 28.8952 48.3888 28.7961 48.4212ZM30.2757 47.7234C30.1719 46.8077 29.4296 45.8785 28.7248 45.3099C28.3059 44.972 27.0425 44.1355 26.5388 44.7788C26.945 44.9491 27.3931 44.9903 27.7956 45.1746C28.3411 45.4246 28.7685 45.8362 29.1375 46.2966C29.6531 46.9398 30.4469 48.2499 29.2154 48.5844C29.3005 48.5306 29.3499 48.4716 29.4171 48.3763C29.2517 48.3393 29.3186 48.0777 29.2604 47.9069C29.1927 47.7081 29.0616 47.5146 28.9509 47.3372C28.7748 47.0531 28.5826 46.7786 28.3752 46.5149C28.0996 46.1673 27.7697 45.8936 27.3933 45.6568C27.2443 45.5631 27.1017 45.4803 26.9305 45.4317C26.7089 45.3691 26.7815 45.4454 26.7209 45.2495C26.6828 45.1266 26.7169 44.9691 26.6805 44.8373C26.3563 45.101 26.2509 45.4822 26.1055 45.8521C25.9379 46.2789 25.7568 46.7005 25.5804 47.1238C25.1475 48.1631 24.5891 49.095 23.9555 50.0256C23.8451 50.1879 23.5998 50.4948 23.7764 50.6894C23.9341 50.8636 24.1592 50.7381 24.3327 50.6673C24.5686 50.5713 24.8888 50.3232 25.1434 50.4531C25.4716 50.6207 25.3166 51.2457 25.8357 51.2208C26.3473 51.1963 26.251 50.3811 26.4151 50.0571C26.7948 50.3251 27.101 50.1589 27.3317 49.8009C27.5988 49.3859 27.9519 49.2194 28.4017 49.0156C28.5857 48.9323 28.9001 48.7071 29.0917 48.6793C29.2504 48.6562 29.4028 48.8197 29.6148 48.8124C30.1237 48.7944 30.3363 48.1361 30.2757 47.7234Z" fill="white"/>
<path fill-rule="evenodd" clip-rule="evenodd" d="M26.7597 48.1736C26.3613 48.1028 25.8056 48.1618 25.7692 48.675C25.7468 48.9895 26.0008 49.2869 26.2755 49.4167C27.117 49.8143 27.772 48.3531 26.7597 48.1736ZM28.3695 47.589C28.2627 47.4767 28.0897 47.3918 27.93 47.4312C27.981 47.397 28.0233 47.3355 28.072 47.2976C27.5535 46.9341 27.2275 47.8509 27.5223 48.2117C27.9688 48.7588 28.8426 48.0899 28.3695 47.589Z" fill="white"/>
<path d="M24.7 31.9789C24.7 32.8332 25.7117 33.4102 27 33.4102C28.2883 33.4102 29.3 32.8332 29.3 31.9789C29.3 31.8032 29.1439 31.6608 28.9714 31.6608C28.759 31.6608 28.6642 31.8047 28.6429 31.9789C28.4388 32.4461 27.9336 32.7289 27 32.774C26.0664 32.7289 25.5612 32.4461 25.3571 31.9789C25.3358 31.8047 25.241 31.6608 25.0286 31.6608C24.8561 31.6608 24.7 31.8032 24.7 31.9789Z" fill="black" fill-opacity="0.6"/>
<path fill-rule="evenodd" clip-rule="evenodd" d="M25.0286 28.7983C25.0286 29.5009 25.9113 30.0706 27 30.0706C28.0887 30.0706 28.9714 29.5009 28.9714 28.7983" fill="black" fill-opacity="0.16"/>
<path d="M25.0286 25.9357C25.0286 27.1654 23.9988 28.1622 22.7286 28.1622C21.4583 28.1622 20.4286 27.1654 20.4286 25.9357C20.4286 24.7061 21.4583 23.7093 22.7286 23.7093C23.9988 23.7093 25.0286 24.7061 25.0286 25.9357ZM33.5714 25.9357C33.5714 27.1654 32.5417 28.1622 31.2714 28.1622C30.0012 28.1622 28.9714 27.1654 28.9714 25.9357C28.9714 24.7061 30.0012 23.7093 31.2714 23.7093C32.5417 23.7093 33.5714 24.7061 33.5714 25.9357Z" fill="white"/>
<path d="M23.7143 24.6635C23.7143 24.9166 23.6104 25.1593 23.4256 25.3382C23.2407 25.5172 22.99 25.6177 22.7286 25.6177C22.4671 25.6177 22.2164 25.5172 22.0316 25.3382C21.8467 25.1593 21.7429 24.9166 21.7429 24.6635C21.7429 24.4104 21.8467 24.1677 22.0316 23.9888C22.2164 23.8098 22.4671 23.7093 22.7286 23.7093C22.99 23.7093 23.2407 23.8098 23.4256 23.9888C23.6104 24.1677 23.7143 24.4104 23.7143 24.6635ZM32.2571 24.6635C32.2571 24.9166 32.1533 25.1593 31.9684 25.3382C31.7836 25.5172 31.5329 25.6177 31.2714 25.6177C31.01 25.6177 30.7593 25.5172 30.5744 25.3382C30.3896 25.1593 30.2857 24.9166 30.2857 24.6635C30.2857 24.4104 30.3896 24.1677 30.5744 23.9888C30.7593 23.8098 31.01 23.7093 31.2714 23.7093C31.5329 23.7093 31.7836 23.8098 31.9684 23.9888C32.1533 24.1677 32.2571 24.4104 32.2571 24.6635Z" fill="black" fill-opacity="0.7"/>
<path d="M20.3614 23.417C21.1 22.411 22.6633 21.9048 24.2641 22.4047C24.3052 22.4175 24.3485 22.4223 24.3915 22.419C24.4345 22.4156 24.4764 22.4041 24.5148 22.385C24.5532 22.366 24.5874 22.3398 24.6153 22.308C24.6433 22.2762 24.6645 22.2393 24.6777 22.1996C24.691 22.1598 24.696 22.1179 24.6925 22.0763C24.6891 22.0347 24.6771 21.9941 24.6575 21.9569C24.6378 21.9198 24.6108 21.8867 24.5779 21.8596C24.545 21.8326 24.507 21.812 24.4659 21.7992C22.5917 21.214 20.73 21.8167 19.8258 23.0486C19.8 23.0826 19.7814 23.1212 19.7712 23.1622C19.761 23.2032 19.7593 23.2458 19.7662 23.2874C19.7731 23.3291 19.7886 23.369 19.8116 23.4048C19.8346 23.4406 19.8647 23.4717 19.9003 23.4961C19.9358 23.5205 19.976 23.5379 20.0185 23.5472C20.061 23.5564 20.105 23.5574 20.1479 23.55C20.1908 23.5427 20.2318 23.5271 20.2685 23.5043C20.3051 23.4815 20.3367 23.4518 20.3614 23.417ZM33.6334 24.5296C32.9903 23.6535 31.2271 23.1623 29.7082 23.5233C29.6242 23.5418 29.536 23.5277 29.4626 23.4839C29.3893 23.44 29.3367 23.3701 29.3161 23.289C29.2955 23.208 29.3087 23.1224 29.3527 23.0507C29.3968 22.979 29.4682 22.9268 29.5515 22.9056C31.3153 22.4862 33.3572 23.0551 34.1691 24.1611C34.1949 24.1951 34.2134 24.2338 34.2237 24.2748C34.2339 24.3158 34.2356 24.3584 34.2287 24.4C34.2217 24.4417 34.2063 24.4816 34.1833 24.5174C34.1603 24.5532 34.1302 24.5842 34.0946 24.6087C34.0591 24.6331 34.0189 24.6505 33.9764 24.6597C33.9339 24.669 33.8899 24.67 33.847 24.6626C33.8041 24.6553 33.7631 24.6397 33.7264 24.6169C33.6898 24.594 33.658 24.5644 33.6334 24.5296Z" fill="black" fill-opacity="0.6"/>
<path d="M20.7084 19.1588C19.9487 23.0508 18.078 25.9534 16.4793 25.6805C16.3676 25.6613 16.2592 25.6272 16.1571 25.5792V22.278C16.1571 18.704 18.0026 15.5472 20.8212 13.6518C20.9011 14.0317 20.9594 14.4458 20.9947 14.8874C22.7516 14.6416 24.8304 14.4994 27.0582 14.4994C29.2381 14.4994 31.2754 14.6355 33.0081 14.8717C33.0434 14.4363 33.1011 14.0279 33.1799 13.6526C35.9981 15.5482 37.8429 18.7046 37.8429 22.278V25.5798C37.7412 25.6275 37.6332 25.6614 37.522 25.6805C35.9258 25.9529 34.058 23.059 33.2962 19.1754C31.5031 19.4365 29.3601 19.5884 27.0582 19.5884C24.7081 19.5884 22.5239 19.43 20.7084 19.1588Z" fill="black" fill-opacity="0.16"/>
<path d="M27 8.12439C25.1582 8.12439 23.4005 8.47362 21.7941 9.10751C21.6409 9.08819 21.4866 9.07852 21.3321 9.07857C20.2313 9.07857 19.2336 9.56759 18.5069 10.3599C15.5425 10.5084 13.0094 12.4769 11.8083 15.2739C10.4904 16.0054 9.58571 17.514 9.58571 19.2565C9.58571 19.3487 9.58818 19.44 9.59327 19.5308C8.55712 21.048 7.94286 22.9357 7.94286 24.9816C7.94286 26.1474 8.1423 27.2619 8.50553 28.2857C8.45889 28.5603 8.43554 28.8381 8.43571 29.1164C8.43571 30.6198 9.10928 31.9493 10.1407 32.7556C11.3501 35.5863 13.9574 37.545 16.9786 37.545C17.2247 37.545 17.4681 37.5319 17.7082 37.5065C18.6032 38.3253 19.7515 38.8172 21.0036 38.8172C21.7332 38.8172 22.4276 38.6502 23.0571 38.3487V36.847C20.1772 35.5226 18.1207 32.7923 17.8343 29.5723C16.8849 29.4347 16.1571 28.6423 16.1571 27.6851V25.6177C16.1571 25.344 16.2166 25.0837 16.3239 24.8483C16.3748 24.8641 16.4266 24.8763 16.4793 24.8854C18.0778 25.1583 19.9487 22.2556 20.7083 18.3637C22.5239 18.635 24.708 18.7931 27.0582 18.7931C29.3601 18.7931 31.5031 18.6414 33.2962 18.3802C34.058 22.2638 35.9258 25.1578 37.522 24.8854C37.5744 24.8765 37.6258 24.8642 37.6763 24.8488C37.7865 25.0911 37.8432 25.353 37.8429 25.6177V27.6851C37.8429 28.6423 37.1149 29.4347 36.1657 29.5723C35.8793 32.7923 33.8229 35.5226 30.9429 36.847V38.3487C31.5724 38.6502 32.2668 38.8172 32.9964 38.8172C34.2484 38.8172 35.3968 38.3253 36.2918 37.5065C36.5319 37.5319 36.7753 37.545 37.0214 37.545C40.0426 37.545 42.6499 35.5863 43.8593 32.7556C44.8907 31.9493 45.5643 30.6198 45.5643 29.1164C45.5643 28.8325 45.5403 28.5548 45.4943 28.2857C45.8577 27.2619 46.0571 26.1474 46.0571 24.9816C46.0571 22.9357 45.4429 21.0478 44.4067 19.5308C44.4118 19.4402 44.4143 19.3486 44.4143 19.2565C44.4143 17.514 43.5096 16.0054 42.1917 15.2739C40.9906 12.4769 38.4575 10.5084 35.4931 10.3599C34.7664 9.56759 33.7687 9.07857 32.6679 9.07857C32.5116 9.07857 32.3575 9.08843 32.2059 9.10751C30.5995 8.47362 28.8418 8.12439 27 8.12439Z" fill="#ECDCBF"/>
<path fill-rule="evenodd" clip-rule="evenodd" d="M23.9081 31.9371C24.2668 31.6775 26.4096 31.578 26.796 31.3569C26.9165 31.2879 27.01 31.2181 27.0821 31.1487C27.1543 31.2181 27.2479 31.2879 27.3683 31.3571C27.7546 31.578 29.8975 31.6774 30.2561 31.9371C30.6192 32.2001 30.8844 32.8035 30.8553 33.2751C30.8205 33.8413 30.1807 35.1918 28.589 35.3473C28.2417 34.9731 27.6961 34.7319 27.0821 34.7319C26.4682 34.7319 25.9226 34.9731 25.5753 35.3473C23.9834 35.1918 23.3438 33.8413 23.309 33.2751C23.2801 32.8035 23.5451 32.2001 23.9081 31.9371ZM36.9989 28.4778C36.935 27.5308 36.7385 26.596 36.567 25.6632C36.5209 25.4121 36.2697 23.7093 36.1565 23.7093C36.1182 25.1581 35.9868 26.5846 35.8172 28.0254C35.7665 28.456 35.7134 28.8867 35.6784 29.3189C35.6503 29.6682 35.7006 30.0899 35.6132 30.4277C35.5016 30.8582 34.9429 31.2597 34.5084 31.4081C33.4241 31.778 32.5197 30.2467 31.5936 29.7987C30.3914 29.2173 28.3248 29.0788 27.0955 29.8367C25.8395 29.0788 23.7729 29.2173 22.5707 29.7987C21.6446 30.2467 20.7402 31.778 19.6559 31.4081C19.2214 31.2597 18.6625 30.858 18.5511 30.4277C18.4637 30.0899 18.514 29.6682 18.4859 29.3189C18.4509 28.8867 18.3978 28.456 18.3471 28.0252C18.1775 26.5846 18.0461 25.1581 18.0078 23.7093C17.8946 23.7093 17.6434 25.4121 17.5971 25.6632C17.4258 26.596 17.2291 27.5308 17.1655 28.478C17.0998 29.4511 17.1782 30.4153 17.3844 31.3687C17.4841 31.8242 17.5964 32.2772 17.721 32.727C17.858 33.2268 17.6684 34.1999 17.7297 34.7129C17.8458 35.6836 18.3182 37.5767 18.8486 38.4118C19.1051 38.8154 19.4056 39.0675 19.7412 39.3927C20.0644 39.7058 20.1992 40.1912 20.5478 40.5247C21.1978 41.1462 22.1447 41.5161 23.1173 41.607C23.9898 42.3238 25.4403 42.7929 27.0821 42.7929C28.7242 42.7929 30.1745 42.3238 31.0472 41.607C32.0196 41.5161 32.9665 41.1462 33.6164 40.5247C33.9651 40.1912 34.0999 39.7058 34.4231 39.3927C34.7586 39.0675 35.0592 38.8154 35.3157 38.4118C35.8461 37.5767 36.3185 35.6836 36.4346 34.7129C36.4959 34.1999 36.3063 33.2268 36.4433 32.727C36.5667 32.2772 36.6815 31.8243 36.7801 31.3688C36.9861 30.4153 37.0643 29.4509 36.9989 28.4778Z" fill="#D6B370"/>
</g>
</svg>
