<svg width="54" height="60" viewBox="0 0 54 60" fill="none" xmlns="http://www.w3.org/2000/svg">
<path d="M53 30.0443C53 46.1284 41.2646 58.9864 27 58.9864C12.7354 58.9864 1 46.1284 1 30.0443C1 13.9602 12.7354 1.10223 27 1.10223C41.2646 1.10223 53 13.9602 53 30.0443Z" fill="#0D0000" stroke="black" stroke-width="2"/>
<mask id="mask0_6_129" style="mask-type:luminance" maskUnits="userSpaceOnUse" x="4" y="8" width="44" height="41">
<path d="M48 8.66769H4V48.0567H48V8.66769Z" fill="white"/>
</mask>
<g mask="url(#mask0_6_129)">
<path d="M26 13.732C21.1399 13.732 17.2 17.259 17.2 21.6098V22.4772C16.3082 22.6111 15.6286 23.3055 15.6286 24.142V26.1114C15.6286 26.9628 16.3326 27.667 17.2479 27.7828C17.5727 30.569 19.5199 32.9232 22.2286 34.0752V36.662H21.6C15.3514 36.662 10.2857 41.1968 10.2857 46.7906V48.0567H41.7143V46.7906C41.7143 41.1968 36.6486 36.662 30.4 36.662H29.7714V34.0752C32.4801 32.9232 34.4273 30.569 34.7521 27.7828C35.6674 27.667 36.3714 26.9628 36.3714 26.1114V24.142C36.3714 23.3055 35.6918 22.6111 34.8 22.4772V21.6098C34.8 17.259 30.8601 13.732 26 13.732Z" fill="#D08B5B"/>
<path d="M22.2286 34.0751V35.2005C23.407 35.7013 24.6955 35.9603 26 35.9586C27.3045 35.9603 28.5929 35.7013 29.7714 35.2005V34.0751C28.5929 34.5759 27.3045 34.8349 26 34.8332C24.6955 34.8349 23.407 34.5759 22.2286 34.0751Z" fill="black" fill-opacity="0.1"/>
<path d="M36.0571 38.017V48.0567H15.9429V38.017C17.201 37.365 18.5886 36.9377 20.0286 36.7588V42.9924H31.9714V36.7588C33.4114 36.9377 34.799 37.365 36.0571 38.017Z" fill="#B1E2FF"/>
<path d="M18.7714 44.2585C18.7714 44.3508 18.7511 44.4423 18.7116 44.5276C18.6721 44.613 18.6143 44.6905 18.5413 44.7558C18.4683 44.8211 18.3817 44.8729 18.2864 44.9083C18.1911 44.9436 18.0889 44.9618 17.9857 44.9618C17.8825 44.9618 17.7804 44.9436 17.685 44.9083C17.5897 44.8729 17.5031 44.8211 17.4301 44.7558C17.3572 44.6905 17.2993 44.613 17.2598 44.5276C17.2203 44.4423 17.2 44.3508 17.2 44.2585C17.2 44.0719 17.2828 43.893 17.4301 43.7611C17.5775 43.6292 17.7773 43.5551 17.9857 43.5551C18.1941 43.5551 18.3939 43.6292 18.5413 43.7611C18.6886 43.893 18.7714 44.0719 18.7714 44.2585ZM34.8 44.2585C34.8 44.445 34.7172 44.6239 34.5699 44.7558C34.4225 44.8877 34.2227 44.9618 34.0143 44.9618C33.8059 44.9618 33.606 44.8877 33.4587 44.7558C33.3113 44.6239 33.2286 44.445 33.2286 44.2585C33.2286 44.0719 33.3113 43.893 33.4587 43.7611C33.606 43.6292 33.8059 43.5551 34.0143 43.5551C34.2227 43.5551 34.4225 43.6292 34.5699 43.7611C34.7172 43.893 34.8 44.0719 34.8 44.2585Z" fill="#F4F4F4"/>
<path d="M23.8 29.769C23.8 30.5247 24.7677 31.035 26 31.035C27.2323 31.035 28.2 30.5247 28.2 29.769C28.2 29.6135 28.0507 29.4876 27.8857 29.4876C27.6825 29.4876 27.5918 29.6149 27.5714 29.769C27.3762 30.1823 26.893 30.4324 26 30.4723C25.1069 30.4324 24.6237 30.1823 24.4286 29.769C24.4081 29.6149 24.3175 29.4876 24.1143 29.4876C23.9493 29.4876 23.8 29.6135 23.8 29.769Z" fill="black" fill-opacity="0.6"/>
<path fill-rule="evenodd" clip-rule="evenodd" d="M24.1143 26.9555C24.1143 27.577 24.9586 28.0809 26 28.0809C27.0414 28.0809 27.8857 27.577 27.8857 26.9555" fill="black" fill-opacity="0.16"/>
<path d="M22.8505 22.7352C22.4498 22.7352 22.0532 23.0138 21.8357 23.2726C21.6173 23.0138 21.2218 22.7352 20.8209 22.7352C19.9582 22.7352 19.4 23.2042 19.4 23.8101C19.4 24.6162 20.0933 25.0945 20.8209 25.6017C21.0806 25.7756 21.572 26.2207 21.6327 26.3183C21.6933 26.4158 21.9636 26.4193 22.0387 26.3183C22.1137 26.2173 22.5903 25.7756 22.8505 25.6017C23.5776 25.0943 24.2714 24.616 24.2714 23.81C24.2714 23.2042 23.7133 22.7352 22.8505 22.7352ZM31.1791 22.7352C30.7784 22.7352 30.3818 23.0138 30.1643 23.2726C29.9459 23.0138 29.5503 22.7352 29.1495 22.7352C28.2867 22.7352 27.7286 23.2042 27.7286 23.8101C27.7286 24.6162 28.4219 25.0945 29.1495 25.6017C29.4092 25.7756 29.9006 26.2207 29.9613 26.3183C30.0219 26.4158 30.2922 26.4193 30.3673 26.3183C30.4423 26.2173 30.9189 25.7756 31.1791 25.6017C31.9062 25.0943 32.6 24.616 32.6 23.81C32.6 23.2042 32.0418 22.7352 31.1791 22.7352Z" fill="#FF5353" fill-opacity="0.8"/>
<path d="M19.65 22.1953C20.3565 21.3054 21.8519 20.8576 23.3831 21.2998C23.4224 21.3111 23.4638 21.3154 23.5049 21.3124C23.5461 21.3095 23.5861 21.2992 23.6229 21.2824C23.6596 21.2656 23.6923 21.2424 23.719 21.2143C23.7458 21.1861 23.766 21.1535 23.7787 21.1184C23.7914 21.0832 23.7962 21.0461 23.7929 21.0093C23.7895 20.9725 23.7781 20.9366 23.7593 20.9037C23.7405 20.8708 23.7146 20.8416 23.6832 20.8176C23.6518 20.7937 23.6154 20.7756 23.5761 20.7642C21.7834 20.2465 20.0026 20.7797 19.1377 21.8694C19.113 21.8994 19.0953 21.9336 19.0855 21.9699C19.0757 22.0061 19.0741 22.0438 19.0807 22.0806C19.0874 22.1175 19.1021 22.1528 19.1241 22.1845C19.1461 22.2162 19.175 22.2436 19.2089 22.2652C19.2429 22.2869 19.2814 22.3022 19.322 22.3104C19.3627 22.3186 19.4048 22.3195 19.4458 22.3129C19.4869 22.3064 19.5261 22.2927 19.5611 22.2725C19.5962 22.2523 19.6264 22.226 19.65 22.1953ZM32.345 23.1795C31.7299 22.4045 30.0433 21.9699 28.5905 22.2893C28.5101 22.3057 28.4257 22.2932 28.3556 22.2544C28.2854 22.2156 28.2351 22.1537 28.2154 22.0821C28.1957 22.0104 28.2083 21.9347 28.2504 21.8712C28.2926 21.8078 28.3609 21.7617 28.4406 21.7429C30.1277 21.3719 32.0808 21.8751 32.8574 22.8535C32.8821 22.8836 32.8998 22.9178 32.9096 22.954C32.9194 22.9903 32.921 23.028 32.9144 23.0648C32.9078 23.1016 32.893 23.1369 32.871 23.1686C32.849 23.2003 32.8202 23.2278 32.7862 23.2494C32.7522 23.271 32.7138 23.2864 32.6731 23.2946C32.6324 23.3027 32.5903 23.3036 32.5493 23.2971C32.5082 23.2906 32.469 23.2768 32.434 23.2566C32.3989 23.2364 32.3686 23.2102 32.345 23.1795Z" fill="black" fill-opacity="0.6"/>
<path fill-rule="evenodd" clip-rule="evenodd" d="M31.3914 13.5922C28.219 11.9463 25.0774 12.2158 22.7058 12.7515C20.3342 13.2872 18.9312 14.8083 17.7275 17.0587C17.1365 18.1637 16.7861 19.4703 16.7322 20.6928C16.711 21.1727 16.7832 21.6682 16.9278 22.1305C16.9808 22.3 17.2665 22.8881 17.3449 22.4129C17.371 22.2547 17.2754 22.0365 17.2663 21.8684C17.254 21.6477 17.2671 21.4243 17.2839 21.204C17.3153 20.7921 17.3974 20.3881 17.5432 19.9956C17.7519 19.4346 18.0173 18.8263 18.4237 18.3529C19.4295 17.1814 21.1708 17.1147 22.5532 16.4701C22.4333 16.6678 21.9708 16.9878 22.131 17.2105C22.2418 17.3644 22.6605 17.3177 22.8606 17.3128C23.3869 17.2998 23.9155 17.218 24.4353 17.1514C25.2545 17.0466 26.0221 16.8342 26.7931 16.5762C27.4242 16.3649 28.145 16.1694 28.6194 15.7212C29.3848 16.4313 30.3701 17.0989 31.3538 17.5504C32.2367 17.9555 33.6605 18.1578 34.2002 18.9793C34.839 19.952 34.5451 21.1466 34.7401 22.2008C34.8143 22.6017 34.9829 22.5927 35.0751 22.2341C35.2318 21.625 35.3058 20.9923 35.256 20.3661C35.1432 18.9526 34.5638 15.2381 31.3914 13.5922Z" fill="#F59797"/>
</g>
</svg>
