<svg width="39" height="32" viewBox="0 0 39 32" fill="none" xmlns="http://www.w3.org/2000/svg">
<path d="M30.8321 20.016L26.7596 19.6357C25.7816 19.5438 24.8196 19.8193 24.1302 20.3833L21.18 22.7968C16.6426 20.908 12.9229 17.878 10.6141 14.1529L13.5802 11.7263C14.2697 11.1623 14.6064 10.3753 14.4941 9.57517L14.0292 6.26977C13.8368 4.94499 12.4739 3.94812 10.8385 3.94812H8.06477C6.253 3.94812 4.74587 5.18109 4.8581 6.66327C5.70787 17.8649 16.6586 26.8105 30.3351 27.5057C32.1468 27.5975 33.654 26.3645 33.654 24.8823V22.6131C33.67 21.2884 32.4515 20.1734 30.8321 20.016Z" fill="black"/>
</svg>
